<mxfile host="app.diagrams.net" modified="2021-08-27T09:05:01.830Z" agent="5.0 (X11; Linux x86_64) AppleWebKit/537.36 (KHTML, like Gecko) Chrome/91.0.4472.114 Safari/537.36" etag="4aoaFqUAtSN25R2KTQCP" version="14.8.1" type="github">
  <diagram name="Page-1" id="e7e014a7-5840-1c2e-5031-d8a46d1fe8dd">
    <mxGraphModel dx="1348" dy="770" grid="1" gridSize="10" guides="1" tooltips="1" connect="1" arrows="1" fold="1" page="1" pageScale="1" pageWidth="1169" pageHeight="826" background="none" math="0" shadow="0">
      <root>
        <mxCell id="0" />
        <mxCell id="1" parent="0" />
        <mxCell id="2" value="Thread 1" style="swimlane;whiteSpace=wrap" parent="1" vertex="1">
          <mxGeometry x="164.5" y="128" width="280" height="570" as="geometry" />
        </mxCell>
        <mxCell id="5" value="" style="ellipse;shape=startState;fillColor=#000000;strokeColor=#ff0000;" parent="2" vertex="1">
          <mxGeometry x="100" y="40" width="30" height="30" as="geometry" />
        </mxCell>
        <mxCell id="6" value="" style="edgeStyle=elbowEdgeStyle;elbow=horizontal;verticalAlign=bottom;endArrow=open;endSize=8;strokeColor=#FF0000;endFill=1;rounded=0" parent="2" source="5" target="7" edge="1">
          <mxGeometry x="100" y="40" as="geometry">
            <mxPoint x="115" y="110" as="targetPoint" />
          </mxGeometry>
        </mxCell>
        <mxCell id="7" value="idle" style="" parent="2" vertex="1">
          <mxGeometry x="60" y="110" width="110" height="50" as="geometry" />
        </mxCell>
        <mxCell id="8" value="user action" style="" parent="2" vertex="1">
          <mxGeometry x="60" y="220" width="110" height="50" as="geometry" />
        </mxCell>
        <mxCell id="9" value="" style="endArrow=open;strokeColor=#FF0000;endFill=1;rounded=0" parent="2" source="7" target="8" edge="1">
          <mxGeometry relative="1" as="geometry" />
        </mxCell>
        <mxCell id="10" value="post command" style="" parent="2" vertex="1">
          <mxGeometry x="60" y="325" width="110" height="50" as="geometry" />
        </mxCell>
        <mxCell id="11" value="" style="endArrow=open;strokeColor=#FF0000;endFill=1;rounded=0" parent="2" source="8" target="10" edge="1">
          <mxGeometry relative="1" as="geometry" />
        </mxCell>
        <mxCell id="12" value="" style="edgeStyle=elbowEdgeStyle;elbow=horizontal;strokeColor=#FF0000;endArrow=open;endFill=1;rounded=0" parent="2" source="10" target="7" edge="1">
          <mxGeometry width="100" height="100" relative="1" as="geometry">
            <mxPoint x="160" y="290" as="sourcePoint" />
            <mxPoint x="260" y="190" as="targetPoint" />
            <Array as="points">
              <mxPoint x="30" y="250" />
            </Array>
          </mxGeometry>
        </mxCell>
        <mxCell id="3" value="Thread 2" style="swimlane;whiteSpace=wrap" parent="1" vertex="1">
          <mxGeometry x="444.5" y="128" width="280" height="570" as="geometry">
            <mxRectangle x="444.5" y="128" width="80" height="23" as="alternateBounds" />
          </mxGeometry>
        </mxCell>
        <mxCell id="13" value="" style="ellipse;shape=startState;fillColor=#000000;strokeColor=#ff0000;" parent="3" vertex="1">
          <mxGeometry x="60" y="40" width="30" height="30" as="geometry" />
        </mxCell>
        <mxCell id="14" value="" style="edgeStyle=elbowEdgeStyle;elbow=horizontal;verticalAlign=bottom;endArrow=open;endSize=8;strokeColor=#FF0000;endFill=1;rounded=0" parent="3" source="13" target="15" edge="1">
          <mxGeometry x="40" y="20" as="geometry">
            <mxPoint x="55" y="90" as="targetPoint" />
          </mxGeometry>
        </mxCell>
        <mxCell id="15" value="idle" style="" parent="3" vertex="1">
          <mxGeometry x="20" y="110" width="110" height="50" as="geometry" />
        </mxCell>
        <mxCell id="16" value="check for &#xa;new commands" style="" parent="3" vertex="1">
          <mxGeometry x="20" y="220" width="110" height="50" as="geometry" />
        </mxCell>
        <mxCell id="17" value="" style="endArrow=open;strokeColor=#FF0000;endFill=1;rounded=0" parent="3" source="15" target="16" edge="1">
          <mxGeometry relative="1" as="geometry" />
        </mxCell>
        <mxCell id="18" value="command queue" style="" parent="3" vertex="1">
          <mxGeometry x="20" y="325" width="110" height="50" as="geometry" />
        </mxCell>
        <mxCell id="19" value="" style="endArrow=open;strokeColor=#FF0000;endFill=1;rounded=0" parent="3" source="16" target="18" edge="1">
          <mxGeometry relative="1" as="geometry" />
        </mxCell>
        <mxCell id="21" value="queue empty" style="rhombus;fillColor=#ffffc0;strokeColor=#ff0000;" parent="3" vertex="1">
          <mxGeometry x="150" y="225" width="80" height="40" as="geometry" />
        </mxCell>
        <mxCell id="22" value="yes" style="edgeStyle=elbowEdgeStyle;elbow=horizontal;align=left;verticalAlign=bottom;endArrow=open;endSize=8;strokeColor=#FF0000;exitX=0.5;exitY=0;endFill=1;rounded=0;entryX=0.75;entryY=0.5;entryPerimeter=0" parent="3" source="21" target="25" edge="1">
          <mxGeometry x="-1" relative="1" as="geometry">
            <mxPoint x="160" y="150" as="targetPoint" />
            <Array as="points">
              <mxPoint x="190" y="180" />
            </Array>
          </mxGeometry>
        </mxCell>
        <mxCell id="23" value="no" style="edgeStyle=elbowEdgeStyle;elbow=horizontal;align=left;verticalAlign=top;endArrow=open;endSize=8;strokeColor=#FF0000;endFill=1;rounded=0" parent="3" source="21" target="30" edge="1">
          <mxGeometry x="-1" relative="1" as="geometry">
            <mxPoint x="190" y="305" as="targetPoint" />
          </mxGeometry>
        </mxCell>
        <mxCell id="24" value="" style="endArrow=open;strokeColor=#FF0000;endFill=1;rounded=0" parent="3" source="16" target="21" edge="1">
          <mxGeometry relative="1" as="geometry" />
        </mxCell>
        <mxCell id="25" value="" style="shape=line;strokeWidth=6;strokeColor=#ff0000;rotation=90" parent="3" vertex="1">
          <mxGeometry x="130" y="127.5" width="50" height="15" as="geometry" />
        </mxCell>
        <mxCell id="26" value="" style="edgeStyle=elbowEdgeStyle;elbow=horizontal;verticalAlign=bottom;endArrow=open;endSize=8;strokeColor=#FF0000;endFill=1;rounded=0" parent="3" source="25" target="15" edge="1">
          <mxGeometry x="130" y="90" as="geometry">
            <mxPoint x="230" y="140" as="targetPoint" />
          </mxGeometry>
        </mxCell>
        <mxCell id="30" value="dispatch&#xa;command&#xa;worker thread" style="" parent="3" vertex="1">
          <mxGeometry x="140" y="325" width="110" height="50" as="geometry" />
        </mxCell>
        <mxCell id="31" value="critical&#xa;section" style="shape=note;whiteSpace=wrap;size=17" parent="3" vertex="1">
          <mxGeometry x="105" y="490" width="100" height="50" as="geometry" />
        </mxCell>
        <mxCell id="32" value="" style="endArrow=none;strokeColor=#FF0000;endFill=0;rounded=0;dashed=1" parent="3" source="18" target="31" edge="1">
          <mxGeometry relative="1" as="geometry" />
        </mxCell>
        <mxCell id="34" value="" style="whiteSpace=wrap;strokeColor=#FF0000;fillColor=#FF0000" parent="3" vertex="1">
          <mxGeometry x="245" y="395" width="5" height="45" as="geometry" />
        </mxCell>
        <mxCell id="41" value="" style="edgeStyle=elbowEdgeStyle;elbow=horizontal;entryX=0;entryY=0.5;strokeColor=#FF0000;endArrow=open;endFill=1;rounded=0" parent="3" source="30" target="34" edge="1">
          <mxGeometry width="100" height="100" relative="1" as="geometry">
            <mxPoint x="60" y="480" as="sourcePoint" />
            <mxPoint x="160" y="380" as="targetPoint" />
            <Array as="points">
              <mxPoint x="195" y="400" />
            </Array>
          </mxGeometry>
        </mxCell>
        <mxCell id="4" value="Thread 3" style="swimlane;whiteSpace=wrap" parent="1" vertex="1">
          <mxGeometry x="724.5" y="128" width="280" height="570" as="geometry" />
        </mxCell>
        <mxCell id="33" value="process&#xa;command" style="" parent="4" vertex="1">
          <mxGeometry x="90" y="405" width="110" height="50" as="geometry" />
        </mxCell>
        <mxCell id="35" value="" style="edgeStyle=elbowEdgeStyle;elbow=horizontal;strokeColor=#FF0000;endArrow=open;endFill=1;rounded=0;entryX=0.25;entryY=0.5;entryPerimeter=0" parent="4" target="25" edge="1">
          <mxGeometry width="100" height="100" relative="1" as="geometry">
            <mxPoint x="-30" y="410" as="sourcePoint" />
            <mxPoint x="-120" y="120" as="targetPoint" />
            <Array as="points">
              <mxPoint x="-10" y="135" />
            </Array>
          </mxGeometry>
        </mxCell>
        <mxCell id="37" value="" style="edgeStyle=none;strokeColor=#FF0000;endArrow=open;endFill=1;rounded=0" parent="4" target="33" edge="1">
          <mxGeometry width="100" height="100" relative="1" as="geometry">
            <mxPoint x="-30" y="429.5" as="sourcePoint" />
            <mxPoint x="90" y="429.5" as="targetPoint" />
          </mxGeometry>
        </mxCell>
        <mxCell id="38" value="" style="ellipse;shape=endState;fillColor=#000000;strokeColor=#ff0000" parent="4" vertex="1">
          <mxGeometry x="130" y="500" width="30" height="30" as="geometry" />
        </mxCell>
        <mxCell id="39" value="" style="endArrow=open;strokeColor=#FF0000;endFill=1;rounded=0" parent="4" source="33" target="38" edge="1">
          <mxGeometry relative="1" as="geometry" />
        </mxCell>
        <mxCell id="20" value="" style="endArrow=open;strokeColor=#FF0000;endFill=1;rounded=0" parent="1" source="10" target="18" edge="1">
          <mxGeometry relative="1" as="geometry" />
        </mxCell>
        <mxCell id="-5hZIKgVOY48h9xYtTlt-41" value="main" style="swimlane;" vertex="1" parent="1">
          <mxGeometry x="1120" y="128" width="400" height="570" as="geometry" />
        </mxCell>
        <mxCell id="-5hZIKgVOY48h9xYtTlt-52" style="edgeStyle=orthogonalEdgeStyle;rounded=0;orthogonalLoop=1;jettySize=auto;html=1;exitX=0.5;exitY=1;exitDx=0;exitDy=0;entryX=0.5;entryY=0;entryDx=0;entryDy=0;" edge="1" parent="-5hZIKgVOY48h9xYtTlt-41" source="-5hZIKgVOY48h9xYtTlt-42" target="-5hZIKgVOY48h9xYtTlt-43">
          <mxGeometry relative="1" as="geometry" />
        </mxCell>
        <mxCell id="-5hZIKgVOY48h9xYtTlt-42" value="" style="ellipse;shape=startState;fillColor=#000000;strokeColor=#ff0000;" vertex="1" parent="-5hZIKgVOY48h9xYtTlt-41">
          <mxGeometry x="125" y="40" width="30" height="30" as="geometry" />
        </mxCell>
        <mxCell id="-5hZIKgVOY48h9xYtTlt-50" style="edgeStyle=orthogonalEdgeStyle;rounded=0;orthogonalLoop=1;jettySize=auto;html=1;exitX=0.5;exitY=1;exitDx=0;exitDy=0;entryX=0.5;entryY=0;entryDx=0;entryDy=0;" edge="1" parent="-5hZIKgVOY48h9xYtTlt-41" source="-5hZIKgVOY48h9xYtTlt-43" target="-5hZIKgVOY48h9xYtTlt-45">
          <mxGeometry relative="1" as="geometry" />
        </mxCell>
        <mxCell id="-5hZIKgVOY48h9xYtTlt-43" value="parse args,&#xa;setup logging" style="" vertex="1" parent="-5hZIKgVOY48h9xYtTlt-41">
          <mxGeometry x="85" y="110" width="110" height="50" as="geometry" />
        </mxCell>
        <mxCell id="-5hZIKgVOY48h9xYtTlt-53" style="edgeStyle=orthogonalEdgeStyle;rounded=0;orthogonalLoop=1;jettySize=auto;html=1;exitX=0.5;exitY=1;exitDx=0;exitDy=0;entryX=0.5;entryY=0;entryDx=0;entryDy=0;" edge="1" parent="-5hZIKgVOY48h9xYtTlt-41" source="-5hZIKgVOY48h9xYtTlt-45" target="-5hZIKgVOY48h9xYtTlt-47">
          <mxGeometry relative="1" as="geometry" />
        </mxCell>
        <mxCell id="-5hZIKgVOY48h9xYtTlt-45" value="init relay" style="" vertex="1" parent="-5hZIKgVOY48h9xYtTlt-41">
          <mxGeometry x="85" y="202" width="110" height="50" as="geometry" />
        </mxCell>
        <mxCell id="-5hZIKgVOY48h9xYtTlt-55" style="edgeStyle=orthogonalEdgeStyle;rounded=0;orthogonalLoop=1;jettySize=auto;html=1;exitX=0.5;exitY=1;exitDx=0;exitDy=0;" edge="1" parent="-5hZIKgVOY48h9xYtTlt-41" source="-5hZIKgVOY48h9xYtTlt-47" target="-5hZIKgVOY48h9xYtTlt-54">
          <mxGeometry relative="1" as="geometry" />
        </mxCell>
        <mxCell id="-5hZIKgVOY48h9xYtTlt-59" style="edgeStyle=orthogonalEdgeStyle;rounded=0;orthogonalLoop=1;jettySize=auto;html=1;exitX=1;exitY=0.5;exitDx=0;exitDy=0;entryX=0;entryY=0.5;entryDx=0;entryDy=0;" edge="1" parent="-5hZIKgVOY48h9xYtTlt-41" source="-5hZIKgVOY48h9xYtTlt-47" target="-5hZIKgVOY48h9xYtTlt-58">
          <mxGeometry relative="1" as="geometry" />
        </mxCell>
        <mxCell id="-5hZIKgVOY48h9xYtTlt-47" value="init radio layers&#xa;for both ue and enb" style="" vertex="1" parent="-5hZIKgVOY48h9xYtTlt-41">
          <mxGeometry x="85" y="292" width="110" height="50" as="geometry" />
        </mxCell>
        <mxCell id="-5hZIKgVOY48h9xYtTlt-57" style="edgeStyle=orthogonalEdgeStyle;rounded=0;orthogonalLoop=1;jettySize=auto;html=1;exitX=0.5;exitY=1;exitDx=0;exitDy=0;entryX=0.5;entryY=0;entryDx=0;entryDy=0;" edge="1" parent="-5hZIKgVOY48h9xYtTlt-41" source="-5hZIKgVOY48h9xYtTlt-54" target="-5hZIKgVOY48h9xYtTlt-56">
          <mxGeometry relative="1" as="geometry" />
        </mxCell>
        <mxCell id="-5hZIKgVOY48h9xYtTlt-62" style="edgeStyle=orthogonalEdgeStyle;rounded=0;orthogonalLoop=1;jettySize=auto;html=1;exitX=1;exitY=0.5;exitDx=0;exitDy=0;entryX=0;entryY=0.5;entryDx=0;entryDy=0;" edge="1" parent="-5hZIKgVOY48h9xYtTlt-41" source="-5hZIKgVOY48h9xYtTlt-54" target="-5hZIKgVOY48h9xYtTlt-61">
          <mxGeometry relative="1" as="geometry" />
        </mxCell>
        <mxCell id="-5hZIKgVOY48h9xYtTlt-54" value="init phy layers&#xa;for both ue and enb" style="" vertex="1" parent="-5hZIKgVOY48h9xYtTlt-41">
          <mxGeometry x="85" y="382" width="110" height="50" as="geometry" />
        </mxCell>
        <mxCell id="-5hZIKgVOY48h9xYtTlt-56" value="init lte_stack layers&#xa;for both ue and enb" style="" vertex="1" parent="-5hZIKgVOY48h9xYtTlt-41">
          <mxGeometry x="85" y="472" width="110" height="50" as="geometry" />
        </mxCell>
        <mxCell id="-5hZIKgVOY48h9xYtTlt-58" value="radio::open_dev" style="" vertex="1" parent="-5hZIKgVOY48h9xYtTlt-41">
          <mxGeometry x="240" y="292" width="110" height="50" as="geometry" />
        </mxCell>
        <mxCell id="-5hZIKgVOY48h9xYtTlt-61" value="setup for&#xa;frequency, logs" style="" vertex="1" parent="-5hZIKgVOY48h9xYtTlt-41">
          <mxGeometry x="240" y="382" width="110" height="50" as="geometry" />
        </mxCell>
        <mxCell id="-5hZIKgVOY48h9xYtTlt-60" value="ue_phy" style="swimlane;" vertex="1" parent="1">
          <mxGeometry x="1560" y="128" width="270" height="570" as="geometry" />
        </mxCell>
        <mxCell id="-5hZIKgVOY48h9xYtTlt-66" style="edgeStyle=orthogonalEdgeStyle;rounded=0;orthogonalLoop=1;jettySize=auto;html=1;exitX=0.5;exitY=1;exitDx=0;exitDy=0;entryX=0.5;entryY=0;entryDx=0;entryDy=0;" edge="1" parent="-5hZIKgVOY48h9xYtTlt-60" source="-5hZIKgVOY48h9xYtTlt-63" target="-5hZIKgVOY48h9xYtTlt-65">
          <mxGeometry relative="1" as="geometry" />
        </mxCell>
        <mxCell id="-5hZIKgVOY48h9xYtTlt-63" value="" style="ellipse;shape=startState;fillColor=#000000;strokeColor=#ff0000;" vertex="1" parent="-5hZIKgVOY48h9xYtTlt-60">
          <mxGeometry x="120" y="40" width="30" height="30" as="geometry" />
        </mxCell>
        <mxCell id="-5hZIKgVOY48h9xYtTlt-83" style="edgeStyle=orthogonalEdgeStyle;rounded=0;orthogonalLoop=1;jettySize=auto;html=1;exitX=0.5;exitY=1;exitDx=0;exitDy=0;entryX=0.5;entryY=0;entryDx=0;entryDy=0;" edge="1" parent="-5hZIKgVOY48h9xYtTlt-60" source="-5hZIKgVOY48h9xYtTlt-65" target="-5hZIKgVOY48h9xYtTlt-67">
          <mxGeometry relative="1" as="geometry" />
        </mxCell>
        <mxCell id="-5hZIKgVOY48h9xYtTlt-65" value="init&#xa;prach_buffer" style="" vertex="1" parent="-5hZIKgVOY48h9xYtTlt-60">
          <mxGeometry x="80" y="110" width="110" height="50" as="geometry" />
        </mxCell>
        <mxCell id="-5hZIKgVOY48h9xYtTlt-85" style="edgeStyle=orthogonalEdgeStyle;rounded=0;orthogonalLoop=1;jettySize=auto;html=1;exitX=0.5;exitY=1;exitDx=0;exitDy=0;entryX=0.5;entryY=0;entryDx=0;entryDy=0;" edge="1" parent="-5hZIKgVOY48h9xYtTlt-60" source="-5hZIKgVOY48h9xYtTlt-67" target="-5hZIKgVOY48h9xYtTlt-84">
          <mxGeometry relative="1" as="geometry" />
        </mxCell>
        <mxCell id="-5hZIKgVOY48h9xYtTlt-67" value="init&#xa;common" style="" vertex="1" parent="-5hZIKgVOY48h9xYtTlt-60">
          <mxGeometry x="80" y="202" width="110" height="50" as="geometry" />
        </mxCell>
        <mxCell id="-5hZIKgVOY48h9xYtTlt-125" style="edgeStyle=orthogonalEdgeStyle;rounded=0;orthogonalLoop=1;jettySize=auto;html=1;exitX=0.5;exitY=1;exitDx=0;exitDy=0;entryX=0.5;entryY=0;entryDx=0;entryDy=0;" edge="1" parent="-5hZIKgVOY48h9xYtTlt-60" source="-5hZIKgVOY48h9xYtTlt-84" target="-5hZIKgVOY48h9xYtTlt-109">
          <mxGeometry relative="1" as="geometry" />
        </mxCell>
        <mxCell id="-5hZIKgVOY48h9xYtTlt-84" value="Add workers &#xa;to workers pool &#xa;and start threads&#xa;&#xa;数量：nof_workers" style="" vertex="1" parent="-5hZIKgVOY48h9xYtTlt-60">
          <mxGeometry x="80" y="292" width="110" height="88" as="geometry" />
        </mxCell>
        <mxCell id="-5hZIKgVOY48h9xYtTlt-109" value="init&#xa;sfsync" style="" vertex="1" parent="-5hZIKgVOY48h9xYtTlt-60">
          <mxGeometry x="80" y="412" width="110" height="50" as="geometry" />
        </mxCell>
        <mxCell id="-5hZIKgVOY48h9xYtTlt-64" style="edgeStyle=orthogonalEdgeStyle;rounded=0;orthogonalLoop=1;jettySize=auto;html=1;exitX=1;exitY=0.5;exitDx=0;exitDy=0;entryX=0;entryY=0.5;entryDx=0;entryDy=0;" edge="1" parent="1" source="-5hZIKgVOY48h9xYtTlt-61" target="-5hZIKgVOY48h9xYtTlt-63">
          <mxGeometry relative="1" as="geometry">
            <Array as="points">
              <mxPoint x="1540" y="535" />
              <mxPoint x="1540" y="183" />
            </Array>
          </mxGeometry>
        </mxCell>
        <mxCell id="-5hZIKgVOY48h9xYtTlt-68" value="prach" style="swimlane;" vertex="1" parent="1">
          <mxGeometry x="1860" y="128" width="270" height="182" as="geometry" />
        </mxCell>
        <mxCell id="-5hZIKgVOY48h9xYtTlt-77" style="edgeStyle=orthogonalEdgeStyle;rounded=0;orthogonalLoop=1;jettySize=auto;html=1;exitX=0.5;exitY=1;exitDx=0;exitDy=0;entryX=0.5;entryY=0;entryDx=0;entryDy=0;" edge="1" parent="-5hZIKgVOY48h9xYtTlt-68" source="-5hZIKgVOY48h9xYtTlt-74" target="-5hZIKgVOY48h9xYtTlt-76">
          <mxGeometry relative="1" as="geometry" />
        </mxCell>
        <mxCell id="-5hZIKgVOY48h9xYtTlt-74" value="init CFO" style="" vertex="1" parent="-5hZIKgVOY48h9xYtTlt-68">
          <mxGeometry x="80" y="42" width="110" height="50" as="geometry" />
        </mxCell>
        <mxCell id="-5hZIKgVOY48h9xYtTlt-76" value="init PRACH library" style="" vertex="1" parent="-5hZIKgVOY48h9xYtTlt-68">
          <mxGeometry x="80" y="112" width="110" height="50" as="geometry" />
        </mxCell>
        <mxCell id="-5hZIKgVOY48h9xYtTlt-75" style="edgeStyle=orthogonalEdgeStyle;rounded=0;orthogonalLoop=1;jettySize=auto;html=1;exitX=1;exitY=0.5;exitDx=0;exitDy=0;" edge="1" parent="1" source="-5hZIKgVOY48h9xYtTlt-65" target="-5hZIKgVOY48h9xYtTlt-74">
          <mxGeometry relative="1" as="geometry">
            <Array as="points">
              <mxPoint x="1850" y="263" />
              <mxPoint x="1850" y="195" />
            </Array>
          </mxGeometry>
        </mxCell>
        <mxCell id="-5hZIKgVOY48h9xYtTlt-78" value="phy_common" style="swimlane;" vertex="1" parent="1">
          <mxGeometry x="1860" y="330" width="270" height="200" as="geometry" />
        </mxCell>
        <mxCell id="-5hZIKgVOY48h9xYtTlt-79" style="edgeStyle=orthogonalEdgeStyle;rounded=0;orthogonalLoop=1;jettySize=auto;html=1;exitX=0.5;exitY=1;exitDx=0;exitDy=0;entryX=0.5;entryY=0;entryDx=0;entryDy=0;" edge="1" parent="-5hZIKgVOY48h9xYtTlt-78" source="-5hZIKgVOY48h9xYtTlt-80" target="-5hZIKgVOY48h9xYtTlt-81">
          <mxGeometry relative="1" as="geometry" />
        </mxCell>
        <mxCell id="-5hZIKgVOY48h9xYtTlt-80" value="set log" style="" vertex="1" parent="-5hZIKgVOY48h9xYtTlt-78">
          <mxGeometry x="80" y="42" width="110" height="50" as="geometry" />
        </mxCell>
        <mxCell id="-5hZIKgVOY48h9xYtTlt-81" value="Instantiate UL &#xa;channel emulator" style="" vertex="1" parent="-5hZIKgVOY48h9xYtTlt-78">
          <mxGeometry x="80" y="120" width="110" height="50" as="geometry" />
        </mxCell>
        <mxCell id="-5hZIKgVOY48h9xYtTlt-82" style="edgeStyle=orthogonalEdgeStyle;rounded=0;orthogonalLoop=1;jettySize=auto;html=1;exitX=1;exitY=0.5;exitDx=0;exitDy=0;entryX=0;entryY=0.5;entryDx=0;entryDy=0;" edge="1" parent="1" source="-5hZIKgVOY48h9xYtTlt-67" target="-5hZIKgVOY48h9xYtTlt-80">
          <mxGeometry relative="1" as="geometry" />
        </mxCell>
        <mxCell id="-5hZIKgVOY48h9xYtTlt-94" value="thread_pool" style="swimlane;" vertex="1" parent="1">
          <mxGeometry x="1560" y="730" width="270" height="340" as="geometry" />
        </mxCell>
        <mxCell id="-5hZIKgVOY48h9xYtTlt-95" value="" style="ellipse;shape=startState;fillColor=#000000;strokeColor=#ff0000;" vertex="1" parent="-5hZIKgVOY48h9xYtTlt-94">
          <mxGeometry x="110" y="40" width="30" height="30" as="geometry" />
        </mxCell>
        <mxCell id="-5hZIKgVOY48h9xYtTlt-108" style="edgeStyle=orthogonalEdgeStyle;rounded=0;orthogonalLoop=1;jettySize=auto;html=1;exitX=0.5;exitY=1;exitDx=0;exitDy=0;" edge="1" parent="-5hZIKgVOY48h9xYtTlt-94" source="-5hZIKgVOY48h9xYtTlt-96" target="-5hZIKgVOY48h9xYtTlt-107">
          <mxGeometry relative="1" as="geometry" />
        </mxCell>
        <mxCell id="-5hZIKgVOY48h9xYtTlt-96" value="init_worker" style="" vertex="1" parent="-5hZIKgVOY48h9xYtTlt-94">
          <mxGeometry x="130" y="110" width="110" height="50" as="geometry" />
        </mxCell>
        <mxCell id="-5hZIKgVOY48h9xYtTlt-107" value="worker::setup" style="" vertex="1" parent="-5hZIKgVOY48h9xYtTlt-94">
          <mxGeometry x="130" y="190" width="110" height="50" as="geometry" />
        </mxCell>
        <mxCell id="-5hZIKgVOY48h9xYtTlt-97" style="edgeStyle=orthogonalEdgeStyle;rounded=0;orthogonalLoop=1;jettySize=auto;html=1;exitX=1;exitY=0.5;exitDx=0;exitDy=0;entryX=1;entryY=0.5;entryDx=0;entryDy=0;" edge="1" parent="1" source="-5hZIKgVOY48h9xYtTlt-84" target="-5hZIKgVOY48h9xYtTlt-96">
          <mxGeometry relative="1" as="geometry">
            <Array as="points">
              <mxPoint x="1850" y="445" />
              <mxPoint x="1850" y="865" />
            </Array>
          </mxGeometry>
        </mxCell>
        <mxCell id="-5hZIKgVOY48h9xYtTlt-104" value="workers_pool" style="edgeLabel;html=1;align=center;verticalAlign=middle;resizable=0;points=[];" vertex="1" connectable="0" parent="-5hZIKgVOY48h9xYtTlt-97">
          <mxGeometry x="-0.8935" y="-2" relative="1" as="geometry">
            <mxPoint x="33" y="-2" as="offset" />
          </mxGeometry>
        </mxCell>
        <mxCell id="-5hZIKgVOY48h9xYtTlt-110" value="sync" style="swimlane;" vertex="1" parent="1">
          <mxGeometry x="1860" y="550" width="270" height="730" as="geometry" />
        </mxCell>
        <mxCell id="-5hZIKgVOY48h9xYtTlt-118" style="edgeStyle=orthogonalEdgeStyle;rounded=0;orthogonalLoop=1;jettySize=auto;html=1;exitX=0.5;exitY=1;exitDx=0;exitDy=0;entryX=0.5;entryY=0;entryDx=0;entryDy=0;" edge="1" parent="-5hZIKgVOY48h9xYtTlt-110" source="-5hZIKgVOY48h9xYtTlt-111" target="-5hZIKgVOY48h9xYtTlt-112">
          <mxGeometry relative="1" as="geometry" />
        </mxCell>
        <mxCell id="-5hZIKgVOY48h9xYtTlt-111" value="SYNC:  Initialing ue_sync&#xa;srslte_ue_sync_init_multi_decim_mode" style="" vertex="1" parent="-5hZIKgVOY48h9xYtTlt-110">
          <mxGeometry x="20" y="50" width="230" height="40" as="geometry" />
        </mxCell>
        <mxCell id="-5hZIKgVOY48h9xYtTlt-119" style="edgeStyle=orthogonalEdgeStyle;rounded=0;orthogonalLoop=1;jettySize=auto;html=1;exitX=0.5;exitY=1;exitDx=0;exitDy=0;" edge="1" parent="-5hZIKgVOY48h9xYtTlt-110" source="-5hZIKgVOY48h9xYtTlt-112" target="-5hZIKgVOY48h9xYtTlt-113">
          <mxGeometry relative="1" as="geometry" />
        </mxCell>
        <mxCell id="-5hZIKgVOY48h9xYtTlt-112" value="Initialize cell searcher&#xa;init search_p" style="" vertex="1" parent="-5hZIKgVOY48h9xYtTlt-110">
          <mxGeometry x="20" y="118" width="230" height="40" as="geometry" />
        </mxCell>
        <mxCell id="-5hZIKgVOY48h9xYtTlt-113" value="Initialize SFN synchronizer, &#xa;it uses only pcell buffer&#xa;init sfn_p&#xa;(class to synchronize &#xa;system frame number)" style="" vertex="1" parent="-5hZIKgVOY48h9xYtTlt-110">
          <mxGeometry x="20" y="190" width="230" height="80" as="geometry" />
        </mxCell>
        <mxCell id="-5hZIKgVOY48h9xYtTlt-123" value="" style="ellipse;shape=startState;fillColor=#000000;strokeColor=#ff0000;" vertex="1" parent="-5hZIKgVOY48h9xYtTlt-110">
          <mxGeometry x="120" y="680" width="30" height="30" as="geometry" />
        </mxCell>
        <mxCell id="-5hZIKgVOY48h9xYtTlt-121" style="edgeStyle=orthogonalEdgeStyle;rounded=0;orthogonalLoop=1;jettySize=auto;html=1;exitX=0.5;exitY=1;exitDx=0;exitDy=0;entryX=0.5;entryY=0;entryDx=0;entryDy=0;" edge="1" parent="1" source="-5hZIKgVOY48h9xYtTlt-114" target="-5hZIKgVOY48h9xYtTlt-116">
          <mxGeometry relative="1" as="geometry" />
        </mxCell>
        <mxCell id="-5hZIKgVOY48h9xYtTlt-114" value="Start intra-frequency measurement&#xa;&#xa;数量：nof_carriers&#xa;init each item in intra_freq_meas&#xa;(intra-cell measurement has 5 &#xa;different states:&#xa;idle;wait;receive;meassure;quit)" style="" vertex="1" parent="1">
          <mxGeometry x="1880" y="851" width="230" height="119" as="geometry" />
        </mxCell>
        <mxCell id="-5hZIKgVOY48h9xYtTlt-115" style="edgeStyle=orthogonalEdgeStyle;rounded=0;orthogonalLoop=1;jettySize=auto;html=1;exitX=1;exitY=0.5;exitDx=0;exitDy=0;entryX=0;entryY=0.5;entryDx=0;entryDy=0;" edge="1" parent="1" source="-5hZIKgVOY48h9xYtTlt-109" target="-5hZIKgVOY48h9xYtTlt-111">
          <mxGeometry relative="1" as="geometry" />
        </mxCell>
        <mxCell id="-5hZIKgVOY48h9xYtTlt-122" style="edgeStyle=orthogonalEdgeStyle;rounded=0;orthogonalLoop=1;jettySize=auto;html=1;exitX=0.5;exitY=1;exitDx=0;exitDy=0;entryX=0.5;entryY=0;entryDx=0;entryDy=0;" edge="1" parent="1" source="-5hZIKgVOY48h9xYtTlt-116" target="-5hZIKgVOY48h9xYtTlt-117">
          <mxGeometry relative="1" as="geometry" />
        </mxCell>
        <mxCell id="-5hZIKgVOY48h9xYtTlt-116" value="Allocate Secondary &#xa;serving cell synchronization&#xa;&#xa;数量：nof_carriers-1&#xa;&#xa;allocate scell_sync" style="" vertex="1" parent="1">
          <mxGeometry x="1880" y="990" width="230" height="119" as="geometry" />
        </mxCell>
        <mxCell id="-5hZIKgVOY48h9xYtTlt-124" style="edgeStyle=orthogonalEdgeStyle;rounded=0;orthogonalLoop=1;jettySize=auto;html=1;exitX=0.5;exitY=1;exitDx=0;exitDy=0;" edge="1" parent="1" source="-5hZIKgVOY48h9xYtTlt-117" target="-5hZIKgVOY48h9xYtTlt-123">
          <mxGeometry relative="1" as="geometry" />
        </mxCell>
        <mxCell id="-5hZIKgVOY48h9xYtTlt-117" value="reset;&#xa;set running = true;&#xa;Enable AGC for &#xa;primary cell receiver" style="" vertex="1" parent="1">
          <mxGeometry x="1880" y="1130" width="230" height="70" as="geometry" />
        </mxCell>
        <mxCell id="-5hZIKgVOY48h9xYtTlt-120" style="edgeStyle=orthogonalEdgeStyle;rounded=0;orthogonalLoop=1;jettySize=auto;html=1;exitX=0.5;exitY=1;exitDx=0;exitDy=0;" edge="1" parent="1" source="-5hZIKgVOY48h9xYtTlt-113">
          <mxGeometry relative="1" as="geometry">
            <mxPoint x="1995" y="850" as="targetPoint" />
          </mxGeometry>
        </mxCell>
      </root>
    </mxGraphModel>
  </diagram>
</mxfile>
